<svg t="1697877684615" class="icon" viewBox="0 0 1024 1024" version="1.1" xmlns="http://www.w3.org/2000/svg" p-id="19414" width="200" height="200"><path d="M810.6496 384l-53.3504-117.3504L640 213.3504l117.2992-53.3504L810.6496 42.6496l53.3504 117.3504 117.2992 53.3504-117.2992 53.2992L810.6496 384z m0 597.3504l-53.3504-117.3504-117.2992-53.3504 117.2992-53.2992 53.3504-117.3504 53.3504 117.3504 117.2992 53.2992-117.2992 53.3504-53.3504 117.3504z m-426.6496-128l-106.7008-234.7008L42.6496 512l234.6496-106.6496L384 170.6496l106.6496 234.7008L725.2992 512l-234.6496 106.6496L384 853.3504z m0-206.9504l42.6496-91.7504L518.4 512l-91.7504-42.6496L384 377.6l-42.7008 91.7504L249.6 512l91.6992 42.6496 42.7008 91.7504z" p-id="19415"></path></svg>
