<svg
  t="1710490291582"
  class="icon"
  viewBox="0 0 1024 1024"
  version="1.1"
  xmlns="http://www.w3.org/2000/svg"
  p-id="3145"
  width="200"
  height="200"
>
  <path
    d="M476.811454 234.638085S575.875862 38.761663 627.148553 9.152912A275.775 275.775 0 0 1 707.702374 0.204763c22.66728 0.839529 111.186386 4.218121 152.753304 63.804195a84.403367 84.403367 0 0 1 4.914315 7.719571 189.938291 189.938291 0 0 1-16.196764 145.996121 204.517427 204.517427 0 0 1-131.048411 98.900597l-179.822992 34.154493a62.616569 62.616569 0 0 0 51.190785 47.83267l163.953849-2.313824a443.353156 443.353156 0 0 1-66.302306 69.373753c-65.524206 55.081285-131.048411 85.242896-177.77536 91.140075-34.400208 2.3343-68.00184-1.474295-102.012998-2.190966 0 0 17.077246 96.812014 172.00104 79.734768a152.978544 152.978544 0 0 1-17.363915 47.382191 166.861485 166.861485 0 0 1-111.432102 79.243336c-52.624128 4.607171-103.917295 2.047631-155.88618 3.173829 0 0-52.378412 189.037333-84.260034 259.639665H176.956308s14.988662-92.143414 47.976004-262.956828A311.731408 311.731408 0 0 1 170.567698 423.634466s28.032074 159.838109 124.905517 181.481573c-7.350997-129.881261-43.55312-267.420664-15.930573-385.568997a382.907077 382.907077 0 0 1 50.105541-76.294747 400.844328 400.844328 0 0 1 166.533864-115.875463s-87.679578 63.763243-66.05659 214.100342z"
    p-id="3146"
  ></path>
</svg>
