<svg
  t="1702480351321"
  class="icon"
  viewBox="0 0 1024 1024"
  version="1.1"
  xmlns="http://www.w3.org/2000/svg"
  p-id="11122"
  width="200"
  height="200"
>
  <path
    d="M509.9008 519.8336m-450.816 0a450.816 450.816 0 1 0 901.632 0 450.816 450.816 0 1 0-901.632 0Z"
    fill="#C65EDB"
    p-id="11123"
  ></path>
  <path
    d="M798.1568 512.512l-113.3056-78.3872a47.4112 47.4112 0 0 1-20.4288-39.0656l0.3584-137.7792c0.1024-39.2704-44.9024-61.5936-76.0832-37.7856l-109.568 83.5072a47.2832 47.2832 0 0 1-43.4688 7.3216l-130.9184-42.9056c-37.3248-12.2368-72.448 23.6544-59.4432 60.7232l45.568 129.9968A47.3088 47.3088 0 0 1 284.416 501.76l-81.2544 111.2576c-23.1424 31.6928 0.1024 76.2368 39.3728 75.3152l137.728-3.1744a47.3344 47.3344 0 0 1 39.4752 19.6096l80.6912 111.6672c22.9888 31.8464 72.4992 23.4496 83.7632-14.1824l37.9392-126.6176 126.5664 118.272a27.648 27.648 0 0 0 17.7664 7.4752c7.8848 0.3584 15.872-2.6112 21.7088-8.8064a27.91936 27.91936 0 0 0-1.3312-39.4752l-124.8768-116.6848 123.8016-39.8848c37.376-11.9808 44.6976-61.6448 12.3904-84.0192z m-389.6832-6.5024l-42.8032 77.824a27.86816 27.86816 0 0 1-37.9392 11.008 27.93984 27.93984 0 0 1-11.008-37.9392l40.0384-72.7552-19.0464-63.6928c-4.4032-14.7968 3.9936-30.3616 18.7392-34.7648 14.7456-4.4032 30.3616 3.9936 34.7648 18.7392l20.6848 69.2224c3.2256 10.752 1.9968 22.528-3.4304 32.3584z"
    fill="#FFFFFF"
    p-id="11124"
  ></path>
</svg>
